# xmcd
#
# Track frame offsets:
#  150
#  3633
#  18534
#  29527
#  43668
#  57370
#  70181
#  80525
#  95885
#  105457
#  120282
#  129972
#  139954
#
# Disc length: 2029 seconds
#
# Revision: 0
# Processed by: cddbd v1.5.1PL0 Copyright (c) Steve Scherf et al.
# Submitted via: Collectorz.com_Music_Collector 6.9
#
DISCID=af07eb0d
DTITLE=Young, Faron - The Best Of Jim Reeves
DYEAR=1900
DGENRE=Country
TTITLE0=Introductory Speech Gentleman Jim
TTITLE1=Gentleman Jim
TTITLE2=He'll Have To Go
TTITLE3=This Is It
TTITLE4=Guilty
TTITLE5=Is This Me
TTITLE6=I Guess I'm Crazy
TTITLE7=Four Walls
TTITLE8=Is It Really Over
TTITLE9=Welcome To My World
TTITLE10=I'm Gonna Change Everything
TTITLE11=According To My Heart
TTITLE12=Mecican Joe
EXTD=
EXTT0=
EXTT1=
EXTT2=
EXTT3=
EXTT4=
EXTT5=
EXTT6=
EXTT7=
EXTT8=
EXTT9=
EXTT10=
EXTT11=
EXTT12=
PLAYORDER=
